solid OpenSCAD_Model
  facet normal 0.951055 0.309021 0
    outer loop
      vertex 7.33611 1.55934 2
      vertex 6.85159 3.05052 0
      vertex 6.85159 3.05052 2
    endloop
  endfacet
  facet normal 0.951055 0.309021 0
    outer loop
      vertex 6.85159 3.05052 0
      vertex 7.33611 1.55934 2
      vertex 7.33611 1.55934 0
    endloop
  endfacet
  facet normal 0.994522 0.10453 0
    outer loop
      vertex 7.3949 1 2
      vertex 7.33611 1.55934 0
      vertex 7.33611 1.55934 2
    endloop
  endfacet
  facet normal 0.994522 0.10453 0
    outer loop
      vertex 7.33611 1.55934 0
      vertex 7.3949 1 2
      vertex 7.3949 1 0
    endloop
  endfacet
  facet normal 0.866027 0.499997 0
    outer loop
      vertex 6.85159 3.05052 2
      vertex 6.06763 4.40839 0
      vertex 6.06763 4.40839 2
    endloop
  endfacet
  facet normal 0.866027 0.499997 0
    outer loop
      vertex 6.06763 4.40839 0
      vertex 6.85159 3.05052 2
      vertex 6.85159 3.05052 0
    endloop
  endfacet
  facet normal 0.406735 -0.913546 0
    outer loop
      vertex 2.31763 -7.13292 0
      vertex 3.75 -6.49519 2
      vertex 2.31763 -7.13292 2
    endloop
  endfacet
  facet normal 0.406735 -0.913546 0
    outer loop
      vertex 3.75 -6.49519 2
      vertex 2.31763 -7.13292 0
      vertex 3.75 -6.49519 0
    endloop
  endfacet
  facet normal 0.994522 -0.10453 0
    outer loop
      vertex 7.33611 -1.55934 2
      vertex 7.3949 -1 0
      vertex 7.3949 -1 2
    endloop
  endfacet
  facet normal 0.994522 -0.10453 0
    outer loop
      vertex 7.3949 -1 0
      vertex 7.33611 -1.55934 2
      vertex 7.33611 -1.55934 0
    endloop
  endfacet
  facet normal 0.743145 0.66913 0
    outer loop
      vertex 6.06763 4.40839 2
      vertex 5.01848 5.57359 0
      vertex 5.01848 5.57359 2
    endloop
  endfacet
  facet normal 0.743145 0.66913 0
    outer loop
      vertex 5.01848 5.57359 0
      vertex 6.06763 4.40839 2
      vertex 6.06763 4.40839 0
    endloop
  endfacet
  facet normal -0.587783 0.809018 0
    outer loop
      vertex -3.75 6.49519 0
      vertex -5.01848 5.57359 2
      vertex -3.75 6.49519 2
    endloop
  endfacet
  facet normal -0.587783 0.809018 0
    outer loop
      vertex -5.01848 5.57359 2
      vertex -3.75 6.49519 0
      vertex -5.01848 5.57359 0
    endloop
  endfacet
  facet normal -0.951055 -0.309021 0
    outer loop
      vertex -6.85159 -3.05052 0
      vertex -7.33611 -1.55934 2
      vertex -7.33611 -1.55934 0
    endloop
  endfacet
  facet normal -0.951055 -0.309021 0
    outer loop
      vertex -7.33611 -1.55934 2
      vertex -6.85159 -3.05052 0
      vertex -6.85159 -3.05052 2
    endloop
  endfacet
  facet normal 0 0 -1
    outer loop
      vertex 7.3949 -1 0
      vertex 46.5 1 0
      vertex 46.5 -1 0
    endloop
  endfacet
  facet normal 0 0 -1
    outer loop
      vertex 7.3949 -1 0
      vertex 7.3949 1 0
      vertex 46.5 1 0
    endloop
  endfacet
  facet normal 0 0 -1
    outer loop
      vertex 6.35796 -1.35143 0
      vertex 7.3949 -1 0
      vertex 7.33611 -1.55934 0
    endloop
  endfacet
  facet normal 0 0 -1
    outer loop
      vertex 7.3949 -1 0
      vertex 6.5 0 0
      vertex 7.3949 1 0
    endloop
  endfacet
  facet normal 0 0 -1
    outer loop
      vertex 6.35796 -1.35143 0
      vertex 7.33611 -1.55934 0
      vertex 6.85159 -3.05052 0
    endloop
  endfacet
  facet normal 0 0 -1
    outer loop
      vertex 6.35796 1.35143 0
      vertex 7.3949 1 0
      vertex 6.5 0 0
    endloop
  endfacet
  facet normal 0 0 -1
    outer loop
      vertex 7.3949 1 0
      vertex 6.35796 1.35143 0
      vertex 7.33611 1.55934 0
    endloop
  endfacet
  facet normal -0 0 -1
    outer loop
      vertex 7.3949 -1 0
      vertex 6.35796 -1.35143 0
      vertex 6.5 0 0
    endloop
  endfacet
  facet normal 0 0 -1
    outer loop
      vertex 5.93804 -2.64379 0
      vertex 6.85159 -3.05052 0
      vertex 6.06763 -4.40839 0
    endloop
  endfacet
  facet normal 0 0 -1
    outer loop
      vertex 6.85159 -3.05052 0
      vertex 5.93804 -2.64379 0
      vertex 6.35796 -1.35143 0
    endloop
  endfacet
  facet normal 0 0 -1
    outer loop
      vertex 6.06763 -4.40839 0
      vertex 5.25861 -3.8206 0
      vertex 5.93804 -2.64379 0
    endloop
  endfacet
  facet normal 0 0 -1
    outer loop
      vertex 5.01848 -5.57359 0
      vertex 5.25861 -3.8206 0
      vertex 6.06763 -4.40839 0
    endloop
  endfacet
  facet normal 0 0 -1
    outer loop
      vertex 5.01848 -5.57359 0
      vertex 4.34935 -4.83044 0
      vertex 5.25861 -3.8206 0
    endloop
  endfacet
  facet normal 0 0 -1
    outer loop
      vertex 3.75 -6.49519 0
      vertex 4.34935 -4.83044 0
      vertex 5.01848 -5.57359 0
    endloop
  endfacet
  facet normal 0 0 -1
    outer loop
      vertex 3.75 -6.49519 0
      vertex 3.25 -5.62916 0
      vertex 4.34935 -4.83044 0
    endloop
  endfacet
  facet normal 0 0 -1
    outer loop
      vertex 2.31763 -7.13292 0
      vertex 3.25 -5.62916 0
      vertex 3.75 -6.49519 0
    endloop
  endfacet
  facet normal 0 0 -1
    outer loop
      vertex 2.31763 -7.13292 0
      vertex 2.00861 -6.18187 0
      vertex 3.25 -5.62916 0
    endloop
  endfacet
  facet normal 0 0 -1
    outer loop
      vertex 0.783963 -7.45891 0
      vertex 2.00861 -6.18187 0
      vertex 2.31763 -7.13292 0
    endloop
  endfacet
  facet normal 0 0 -1
    outer loop
      vertex 0.783963 -7.45891 0
      vertex 0.679435 -6.46439 0
      vertex 2.00861 -6.18187 0
    endloop
  endfacet
  facet normal 0 0 -1
    outer loop
      vertex 0.783963 -7.45891 0
      vertex -0.679435 -6.46439 0
      vertex 0.679435 -6.46439 0
    endloop
  endfacet
  facet normal 0 0 -1
    outer loop
      vertex -0.783963 -7.45891 0
      vertex -0.679435 -6.46439 0
      vertex 0.783963 -7.45891 0
    endloop
  endfacet
  facet normal 0 0 -1
    outer loop
      vertex -0.783963 -7.45891 0
      vertex -2.00861 -6.18187 0
      vertex -0.679435 -6.46439 0
    endloop
  endfacet
  facet normal 0 0 -1
    outer loop
      vertex -2.31763 -7.13292 0
      vertex -2.00861 -6.18187 0
      vertex -0.783963 -7.45891 0
    endloop
  endfacet
  facet normal 0 0 -1
    outer loop
      vertex -2.31763 -7.13292 0
      vertex -3.25 -5.62916 0
      vertex -2.00861 -6.18187 0
    endloop
  endfacet
  facet normal 0 0 -1
    outer loop
      vertex -3.75 -6.49519 0
      vertex -3.25 -5.62916 0
      vertex -2.31763 -7.13292 0
    endloop
  endfacet
  facet normal 0 0 -1
    outer loop
      vertex -3.75 -6.49519 0
      vertex -4.34935 -4.83044 0
      vertex -3.25 -5.62916 0
    endloop
  endfacet
  facet normal 0 0 -1
    outer loop
      vertex -5.01848 -5.57359 0
      vertex -4.34935 -4.83044 0
      vertex -3.75 -6.49519 0
    endloop
  endfacet
  facet normal 0 0 -1
    outer loop
      vertex -5.01848 -5.57359 0
      vertex -5.25861 -3.8206 0
      vertex -4.34935 -4.83044 0
    endloop
  endfacet
  facet normal 0 0 -1
    outer loop
      vertex -6.06763 -4.40839 0
      vertex -5.25861 -3.8206 0
      vertex -5.01848 -5.57359 0
    endloop
  endfacet
  facet normal -0 0 -1
    outer loop
      vertex -5.25861 -3.8206 0
      vertex -6.06763 -4.40839 0
      vertex -5.93804 -2.64379 0
    endloop
  endfacet
  facet normal 0 0 -1
    outer loop
      vertex -6.85159 -3.05052 0
      vertex -5.93804 -2.64379 0
      vertex -6.06763 -4.40839 0
    endloop
  endfacet
  facet normal -0 0 -1
    outer loop
      vertex -5.93804 -2.64379 0
      vertex -6.85159 -3.05052 0
      vertex -6.35796 -1.35143 0
    endloop
  endfacet
  facet normal 0 0 -1
    outer loop
      vertex -7.33611 -1.55934 0
      vertex -6.35796 -1.35143 0
      vertex -6.85159 -3.05052 0
    endloop
  endfacet
  facet normal -0 0 -1
    outer loop
      vertex 7.33611 1.55934 0
      vertex 6.35796 1.35143 0
      vertex 6.85159 3.05052 0
    endloop
  endfacet
  facet normal 0 0 -1
    outer loop
      vertex 5.93804 2.64379 0
      vertex 6.85159 3.05052 0
      vertex 6.35796 1.35143 0
    endloop
  endfacet
  facet normal -0 0 -1
    outer loop
      vertex 6.85159 3.05052 0
      vertex 5.93804 2.64379 0
      vertex 6.06763 4.40839 0
    endloop
  endfacet
  facet normal 0 0 -1
    outer loop
      vertex 5.25861 3.8206 0
      vertex 6.06763 4.40839 0
      vertex 5.93804 2.64379 0
    endloop
  endfacet
  facet normal 0 0 -1
    outer loop
      vertex 5.25861 3.8206 0
      vertex 5.01848 5.57359 0
      vertex 6.06763 4.40839 0
    endloop
  endfacet
  facet normal 0 0 -1
    outer loop
      vertex 4.34935 4.83044 0
      vertex 5.01848 5.57359 0
      vertex 5.25861 3.8206 0
    endloop
  endfacet
  facet normal 0 0 -1
    outer loop
      vertex 4.34935 4.83044 0
      vertex 3.75 6.49519 0
      vertex 5.01848 5.57359 0
    endloop
  endfacet
  facet normal 0 0 -1
    outer loop
      vertex 3.25 5.62916 0
      vertex 3.75 6.49519 0
      vertex 4.34935 4.83044 0
    endloop
  endfacet
  facet normal 0 0 -1
    outer loop
      vertex 3.25 5.62916 0
      vertex 2.31763 7.13292 0
      vertex 3.75 6.49519 0
    endloop
  endfacet
  facet normal 0 0 -1
    outer loop
      vertex 2.00861 6.18187 0
      vertex 2.31763 7.13292 0
      vertex 3.25 5.62916 0
    endloop
  endfacet
  facet normal 0 0 -1
    outer loop
      vertex 2.00861 6.18187 0
      vertex 0.783963 7.45891 0
      vertex 2.31763 7.13292 0
    endloop
  endfacet
  facet normal 0 0 -1
    outer loop
      vertex 0.679435 6.46439 0
      vertex 0.783963 7.45891 0
      vertex 2.00861 6.18187 0
    endloop
  endfacet
  facet normal 0 0 -1
    outer loop
      vertex -0.679435 6.46439 0
      vertex 0.783963 7.45891 0
      vertex 0.679435 6.46439 0
    endloop
  endfacet
  facet normal 0 0 -1
    outer loop
      vertex -0.679435 6.46439 0
      vertex -0.783963 7.45891 0
      vertex 0.783963 7.45891 0
    endloop
  endfacet
  facet normal 0 0 -1
    outer loop
      vertex -2.00861 6.18187 0
      vertex -0.783963 7.45891 0
      vertex -0.679435 6.46439 0
    endloop
  endfacet
  facet normal 0 0 -1
    outer loop
      vertex -2.00861 6.18187 0
      vertex -2.31763 7.13292 0
      vertex -0.783963 7.45891 0
    endloop
  endfacet
  facet normal 0 0 -1
    outer loop
      vertex -3.25 5.62916 0
      vertex -2.31763 7.13292 0
      vertex -2.00861 6.18187 0
    endloop
  endfacet
  facet normal 0 0 -1
    outer loop
      vertex -3.25 5.62916 0
      vertex -3.75 6.49519 0
      vertex -2.31763 7.13292 0
    endloop
  endfacet
  facet normal 0 0 -1
    outer loop
      vertex -4.34935 4.83044 0
      vertex -3.75 6.49519 0
      vertex -3.25 5.62916 0
    endloop
  endfacet
  facet normal 0 0 -1
    outer loop
      vertex -4.34935 4.83044 0
      vertex -5.01848 5.57359 0
      vertex -3.75 6.49519 0
    endloop
  endfacet
  facet normal 0 0 -1
    outer loop
      vertex -5.25861 3.8206 0
      vertex -5.01848 5.57359 0
      vertex -4.34935 4.83044 0
    endloop
  endfacet
  facet normal 0 0 -1
    outer loop
      vertex -6.06763 4.40839 0
      vertex -5.25861 3.8206 0
      vertex -5.93804 2.64379 0
    endloop
  endfacet
  facet normal 0 0 -1
    outer loop
      vertex -5.25861 3.8206 0
      vertex -6.06763 4.40839 0
      vertex -5.01848 5.57359 0
    endloop
  endfacet
  facet normal 0 0 -1
    outer loop
      vertex -6.85159 3.05052 0
      vertex -5.93804 2.64379 0
      vertex -6.35796 1.35143 0
    endloop
  endfacet
  facet normal 0 0 -1
    outer loop
      vertex -7.33611 1.55934 0
      vertex -6.35796 1.35143 0
      vertex -6.5 0 0
    endloop
  endfacet
  facet normal -0 0 -1
    outer loop
      vertex -6.35796 -1.35143 0
      vertex -7.33611 -1.55934 0
      vertex -6.5 0 0
    endloop
  endfacet
  facet normal 0 0 -1
    outer loop
      vertex -5.93804 2.64379 0
      vertex -6.85159 3.05052 0
      vertex -6.06763 4.40839 0
    endloop
  endfacet
  facet normal 0 0 -1
    outer loop
      vertex -7.5 0 0
      vertex -6.5 0 0
      vertex -7.33611 -1.55934 0
    endloop
  endfacet
  facet normal 0 0 -1
    outer loop
      vertex -6.35796 1.35143 0
      vertex -7.33611 1.55934 0
      vertex -6.85159 3.05052 0
    endloop
  endfacet
  facet normal 0 0 -1
    outer loop
      vertex -6.5 0 0
      vertex -7.5 0 0
      vertex -7.33611 1.55934 0
    endloop
  endfacet
  facet normal -0.951055 0.309021 0
    outer loop
      vertex -7.33611 1.55934 0
      vertex -6.85159 3.05052 2
      vertex -6.85159 3.05052 0
    endloop
  endfacet
  facet normal -0.951055 0.309021 0
    outer loop
      vertex -6.85159 3.05052 2
      vertex -7.33611 1.55934 0
      vertex -7.33611 1.55934 2
    endloop
  endfacet
  facet normal 0 -1 0
    outer loop
      vertex -0.783963 -7.45891 0
      vertex 0.783963 -7.45891 2
      vertex -0.783963 -7.45891 2
    endloop
  endfacet
  facet normal 0 -1 -0
    outer loop
      vertex 0.783963 -7.45891 2
      vertex -0.783963 -7.45891 0
      vertex 0.783963 -7.45891 0
    endloop
  endfacet
  facet normal -0.406735 -0.913546 0
    outer loop
      vertex -3.75 -6.49519 0
      vertex -2.31763 -7.13292 2
      vertex -3.75 -6.49519 2
    endloop
  endfacet
  facet normal -0.406735 -0.913546 -0
    outer loop
      vertex -2.31763 -7.13292 2
      vertex -3.75 -6.49519 0
      vertex -2.31763 -7.13292 0
    endloop
  endfacet
  facet normal -0 0 1
    outer loop
      vertex 7.3949 1 2
      vertex 46.5 -1 2
      vertex 46.5 1 2
    endloop
  endfacet
  facet normal 0 0 1
    outer loop
      vertex 7.3949 1 2
      vertex 7.3949 -1 2
      vertex 46.5 -1 2
    endloop
  endfacet
  facet normal -0 0 1
    outer loop
      vertex 6.35796 1.35143 2
      vertex 7.3949 1 2
      vertex 7.33611 1.55934 2
    endloop
  endfacet
  facet normal 0 0 1
    outer loop
      vertex 7.3949 1 2
      vertex 6.5 0 2
      vertex 7.3949 -1 2
    endloop
  endfacet
  facet normal 0 0 1
    outer loop
      vertex 6.35796 1.35143 2
      vertex 7.33611 1.55934 2
      vertex 6.85159 3.05052 2
    endloop
  endfacet
  facet normal 0 0 1
    outer loop
      vertex 6.35796 -1.35143 2
      vertex 7.3949 -1 2
      vertex 6.5 0 2
    endloop
  endfacet
  facet normal 0 0 1
    outer loop
      vertex 7.3949 -1 2
      vertex 6.35796 -1.35143 2
      vertex 7.33611 -1.55934 2
    endloop
  endfacet
  facet normal 0 0 1
    outer loop
      vertex 7.3949 1 2
      vertex 6.35796 1.35143 2
      vertex 6.5 0 2
    endloop
  endfacet
  facet normal 0 0 1
    outer loop
      vertex 5.93804 2.64379 2
      vertex 6.85159 3.05052 2
      vertex 6.06763 4.40839 2
    endloop
  endfacet
  facet normal 0 0 1
    outer loop
      vertex 6.85159 3.05052 2
      vertex 5.93804 2.64379 2
      vertex 6.35796 1.35143 2
    endloop
  endfacet
  facet normal 0 0 1
    outer loop
      vertex 6.06763 4.40839 2
      vertex 5.25861 3.8206 2
      vertex 5.93804 2.64379 2
    endloop
  endfacet
  facet normal 0 0 1
    outer loop
      vertex 5.01848 5.57359 2
      vertex 5.25861 3.8206 2
      vertex 6.06763 4.40839 2
    endloop
  endfacet
  facet normal 0 0 1
    outer loop
      vertex 5.01848 5.57359 2
      vertex 4.34935 4.83044 2
      vertex 5.25861 3.8206 2
    endloop
  endfacet
  facet normal 0 0 1
    outer loop
      vertex 3.75 6.49519 2
      vertex 4.34935 4.83044 2
      vertex 5.01848 5.57359 2
    endloop
  endfacet
  facet normal 0 0 1
    outer loop
      vertex 3.75 6.49519 2
      vertex 3.25 5.62916 2
      vertex 4.34935 4.83044 2
    endloop
  endfacet
  facet normal 0 0 1
    outer loop
      vertex 2.31763 7.13292 2
      vertex 3.25 5.62916 2
      vertex 3.75 6.49519 2
    endloop
  endfacet
  facet normal 0 0 1
    outer loop
      vertex 2.31763 7.13292 2
      vertex 2.00861 6.18187 2
      vertex 3.25 5.62916 2
    endloop
  endfacet
  facet normal 0 0 1
    outer loop
      vertex 0.783963 7.45891 2
      vertex 2.00861 6.18187 2
      vertex 2.31763 7.13292 2
    endloop
  endfacet
  facet normal 0 0 1
    outer loop
      vertex 0.783963 7.45891 2
      vertex 0.679435 6.46439 2
      vertex 2.00861 6.18187 2
    endloop
  endfacet
  facet normal 0 0 1
    outer loop
      vertex 0.783963 7.45891 2
      vertex -0.679435 6.46439 2
      vertex 0.679435 6.46439 2
    endloop
  endfacet
  facet normal -0 0 1
    outer loop
      vertex -0.783963 7.45891 2
      vertex -0.679435 6.46439 2
      vertex 0.783963 7.45891 2
    endloop
  endfacet
  facet normal 0 0 1
    outer loop
      vertex -0.783963 7.45891 2
      vertex -2.00861 6.18187 2
      vertex -0.679435 6.46439 2
    endloop
  endfacet
  facet normal -0 0 1
    outer loop
      vertex -2.31763 7.13292 2
      vertex -2.00861 6.18187 2
      vertex -0.783963 7.45891 2
    endloop
  endfacet
  facet normal 0 0 1
    outer loop
      vertex -2.31763 7.13292 2
      vertex -3.25 5.62916 2
      vertex -2.00861 6.18187 2
    endloop
  endfacet
  facet normal -0 0 1
    outer loop
      vertex -3.75 6.49519 2
      vertex -3.25 5.62916 2
      vertex -2.31763 7.13292 2
    endloop
  endfacet
  facet normal 0 0 1
    outer loop
      vertex -3.75 6.49519 2
      vertex -4.34935 4.83044 2
      vertex -3.25 5.62916 2
    endloop
  endfacet
  facet normal -0 0 1
    outer loop
      vertex -5.01848 5.57359 2
      vertex -4.34935 4.83044 2
      vertex -3.75 6.49519 2
    endloop
  endfacet
  facet normal 0 0 1
    outer loop
      vertex -5.01848 5.57359 2
      vertex -5.25861 3.8206 2
      vertex -4.34935 4.83044 2
    endloop
  endfacet
  facet normal -0 0 1
    outer loop
      vertex -6.06763 4.40839 2
      vertex -5.25861 3.8206 2
      vertex -5.01848 5.57359 2
    endloop
  endfacet
  facet normal 0 0 1
    outer loop
      vertex -5.25861 3.8206 2
      vertex -6.06763 4.40839 2
      vertex -5.93804 2.64379 2
    endloop
  endfacet
  facet normal -0 0 1
    outer loop
      vertex -6.85159 3.05052 2
      vertex -5.93804 2.64379 2
      vertex -6.06763 4.40839 2
    endloop
  endfacet
  facet normal 0 0 1
    outer loop
      vertex -5.93804 2.64379 2
      vertex -6.85159 3.05052 2
      vertex -6.35796 1.35143 2
    endloop
  endfacet
  facet normal -0 0 1
    outer loop
      vertex -7.33611 1.55934 2
      vertex -6.35796 1.35143 2
      vertex -6.85159 3.05052 2
    endloop
  endfacet
  facet normal 0 0 1
    outer loop
      vertex 7.33611 -1.55934 2
      vertex 6.35796 -1.35143 2
      vertex 6.85159 -3.05052 2
    endloop
  endfacet
  facet normal -0 0 1
    outer loop
      vertex 5.93804 -2.64379 2
      vertex 6.85159 -3.05052 2
      vertex 6.35796 -1.35143 2
    endloop
  endfacet
  facet normal 0 0 1
    outer loop
      vertex 6.85159 -3.05052 2
      vertex 5.93804 -2.64379 2
      vertex 6.06763 -4.40839 2
    endloop
  endfacet
  facet normal -0 0 1
    outer loop
      vertex 5.25861 -3.8206 2
      vertex 6.06763 -4.40839 2
      vertex 5.93804 -2.64379 2
    endloop
  endfacet
  facet normal 0 0 1
    outer loop
      vertex 5.25861 -3.8206 2
      vertex 5.01848 -5.57359 2
      vertex 6.06763 -4.40839 2
    endloop
  endfacet
  facet normal -0 0 1
    outer loop
      vertex 4.34935 -4.83044 2
      vertex 5.01848 -5.57359 2
      vertex 5.25861 -3.8206 2
    endloop
  endfacet
  facet normal 0 0 1
    outer loop
      vertex 4.34935 -4.83044 2
      vertex 3.75 -6.49519 2
      vertex 5.01848 -5.57359 2
    endloop
  endfacet
  facet normal -0 0 1
    outer loop
      vertex 3.25 -5.62916 2
      vertex 3.75 -6.49519 2
      vertex 4.34935 -4.83044 2
    endloop
  endfacet
  facet normal 0 0 1
    outer loop
      vertex 3.25 -5.62916 2
      vertex 2.31763 -7.13292 2
      vertex 3.75 -6.49519 2
    endloop
  endfacet
  facet normal -0 0 1
    outer loop
      vertex 2.00861 -6.18187 2
      vertex 2.31763 -7.13292 2
      vertex 3.25 -5.62916 2
    endloop
  endfacet
  facet normal 0 0 1
    outer loop
      vertex 2.00861 -6.18187 2
      vertex 0.783963 -7.45891 2
      vertex 2.31763 -7.13292 2
    endloop
  endfacet
  facet normal -0 0 1
    outer loop
      vertex 0.679435 -6.46439 2
      vertex 0.783963 -7.45891 2
      vertex 2.00861 -6.18187 2
    endloop
  endfacet
  facet normal -0 0 1
    outer loop
      vertex -0.679435 -6.46439 2
      vertex 0.783963 -7.45891 2
      vertex 0.679435 -6.46439 2
    endloop
  endfacet
  facet normal 0 0 1
    outer loop
      vertex -0.679435 -6.46439 2
      vertex -0.783963 -7.45891 2
      vertex 0.783963 -7.45891 2
    endloop
  endfacet
  facet normal 0 0 1
    outer loop
      vertex -2.00861 -6.18187 2
      vertex -0.783963 -7.45891 2
      vertex -0.679435 -6.46439 2
    endloop
  endfacet
  facet normal 0 0 1
    outer loop
      vertex -2.00861 -6.18187 2
      vertex -2.31763 -7.13292 2
      vertex -0.783963 -7.45891 2
    endloop
  endfacet
  facet normal 0 0 1
    outer loop
      vertex -3.25 -5.62916 2
      vertex -2.31763 -7.13292 2
      vertex -2.00861 -6.18187 2
    endloop
  endfacet
  facet normal 0 0 1
    outer loop
      vertex -3.25 -5.62916 2
      vertex -3.75 -6.49519 2
      vertex -2.31763 -7.13292 2
    endloop
  endfacet
  facet normal 0 0 1
    outer loop
      vertex -4.34935 -4.83044 2
      vertex -3.75 -6.49519 2
      vertex -3.25 -5.62916 2
    endloop
  endfacet
  facet normal 0 0 1
    outer loop
      vertex -4.34935 -4.83044 2
      vertex -5.01848 -5.57359 2
      vertex -3.75 -6.49519 2
    endloop
  endfacet
  facet normal 0 0 1
    outer loop
      vertex -5.25861 -3.8206 2
      vertex -5.01848 -5.57359 2
      vertex -4.34935 -4.83044 2
    endloop
  endfacet
  facet normal 0 0 1
    outer loop
      vertex -6.06763 -4.40839 2
      vertex -5.25861 -3.8206 2
      vertex -5.93804 -2.64379 2
    endloop
  endfacet
  facet normal 0 0 1
    outer loop
      vertex -5.25861 -3.8206 2
      vertex -6.06763 -4.40839 2
      vertex -5.01848 -5.57359 2
    endloop
  endfacet
  facet normal 0 0 1
    outer loop
      vertex -6.85159 -3.05052 2
      vertex -5.93804 -2.64379 2
      vertex -6.35796 -1.35143 2
    endloop
  endfacet
  facet normal 0 0 1
    outer loop
      vertex -7.33611 -1.55934 2
      vertex -6.35796 -1.35143 2
      vertex -6.5 0 2
    endloop
  endfacet
  facet normal 0 0 1
    outer loop
      vertex -6.35796 1.35143 2
      vertex -7.33611 1.55934 2
      vertex -6.5 0 2
    endloop
  endfacet
  facet normal 0 0 1
    outer loop
      vertex -5.93804 -2.64379 2
      vertex -6.85159 -3.05052 2
      vertex -6.06763 -4.40839 2
    endloop
  endfacet
  facet normal 0 0 1
    outer loop
      vertex -7.5 0 2
      vertex -6.5 0 2
      vertex -7.33611 1.55934 2
    endloop
  endfacet
  facet normal 0 0 1
    outer loop
      vertex -6.35796 -1.35143 2
      vertex -7.33611 -1.55934 2
      vertex -6.85159 -3.05052 2
    endloop
  endfacet
  facet normal 0 0 1
    outer loop
      vertex -6.5 0 2
      vertex -7.5 0 2
      vertex -7.33611 -1.55934 2
    endloop
  endfacet
  facet normal -0.207911 -0.978148 0
    outer loop
      vertex -2.31763 -7.13292 0
      vertex -0.783963 -7.45891 2
      vertex -2.31763 -7.13292 2
    endloop
  endfacet
  facet normal -0.207911 -0.978148 -0
    outer loop
      vertex -0.783963 -7.45891 2
      vertex -2.31763 -7.13292 0
      vertex -0.783963 -7.45891 0
    endloop
  endfacet
  facet normal -0.743145 0.66913 0
    outer loop
      vertex -6.06763 4.40839 0
      vertex -5.01848 5.57359 2
      vertex -5.01848 5.57359 0
    endloop
  endfacet
  facet normal -0.743145 0.66913 0
    outer loop
      vertex -5.01848 5.57359 2
      vertex -6.06763 4.40839 0
      vertex -6.06763 4.40839 2
    endloop
  endfacet
  facet normal 0.743145 -0.66913 0
    outer loop
      vertex 5.01848 -5.57359 2
      vertex 6.06763 -4.40839 0
      vertex 6.06763 -4.40839 2
    endloop
  endfacet
  facet normal 0.743145 -0.66913 0
    outer loop
      vertex 6.06763 -4.40839 0
      vertex 5.01848 -5.57359 2
      vertex 5.01848 -5.57359 0
    endloop
  endfacet
  facet normal 0.866027 -0.499997 0
    outer loop
      vertex 6.06763 -4.40839 2
      vertex 6.85159 -3.05052 0
      vertex 6.85159 -3.05052 2
    endloop
  endfacet
  facet normal 0.866027 -0.499997 0
    outer loop
      vertex 6.85159 -3.05052 0
      vertex 6.06763 -4.40839 2
      vertex 6.06763 -4.40839 0
    endloop
  endfacet
  facet normal 0.587783 -0.809018 0
    outer loop
      vertex 3.75 -6.49519 0
      vertex 5.01848 -5.57359 2
      vertex 3.75 -6.49519 2
    endloop
  endfacet
  facet normal 0.587783 -0.809018 0
    outer loop
      vertex 5.01848 -5.57359 2
      vertex 3.75 -6.49519 0
      vertex 5.01848 -5.57359 0
    endloop
  endfacet
  facet normal 0 1 -0
    outer loop
      vertex 0.783963 7.45891 0
      vertex -0.783963 7.45891 2
      vertex 0.783963 7.45891 2
    endloop
  endfacet
  facet normal 0 1 0
    outer loop
      vertex -0.783963 7.45891 2
      vertex 0.783963 7.45891 0
      vertex -0.783963 7.45891 0
    endloop
  endfacet
  facet normal 0.951055 -0.309021 0
    outer loop
      vertex 6.85159 -3.05052 2
      vertex 7.33611 -1.55934 0
      vertex 7.33611 -1.55934 2
    endloop
  endfacet
  facet normal 0.951055 -0.309021 0
    outer loop
      vertex 7.33611 -1.55934 0
      vertex 6.85159 -3.05052 2
      vertex 6.85159 -3.05052 0
    endloop
  endfacet
  facet normal -0.207911 0.978148 0
    outer loop
      vertex -0.783963 7.45891 0
      vertex -2.31763 7.13292 2
      vertex -0.783963 7.45891 2
    endloop
  endfacet
  facet normal -0.207911 0.978148 0
    outer loop
      vertex -2.31763 7.13292 2
      vertex -0.783963 7.45891 0
      vertex -2.31763 7.13292 0
    endloop
  endfacet
  facet normal -0.406735 0.913546 0
    outer loop
      vertex -2.31763 7.13292 0
      vertex -3.75 6.49519 2
      vertex -2.31763 7.13292 2
    endloop
  endfacet
  facet normal -0.406735 0.913546 0
    outer loop
      vertex -3.75 6.49519 2
      vertex -2.31763 7.13292 0
      vertex -3.75 6.49519 0
    endloop
  endfacet
  facet normal 0.587783 0.809018 -0
    outer loop
      vertex 5.01848 5.57359 0
      vertex 3.75 6.49519 2
      vertex 5.01848 5.57359 2
    endloop
  endfacet
  facet normal 0.587783 0.809018 0
    outer loop
      vertex 3.75 6.49519 2
      vertex 5.01848 5.57359 0
      vertex 3.75 6.49519 0
    endloop
  endfacet
  facet normal -0.994522 0.104526 0
    outer loop
      vertex -7.5 0 0
      vertex -7.33611 1.55934 2
      vertex -7.33611 1.55934 0
    endloop
  endfacet
  facet normal -0.994522 0.104526 0
    outer loop
      vertex -7.33611 1.55934 2
      vertex -7.5 0 0
      vertex -7.5 0 2
    endloop
  endfacet
  facet normal 0.406735 0.913546 -0
    outer loop
      vertex 3.75 6.49519 0
      vertex 2.31763 7.13292 2
      vertex 3.75 6.49519 2
    endloop
  endfacet
  facet normal 0.406735 0.913546 0
    outer loop
      vertex 2.31763 7.13292 2
      vertex 3.75 6.49519 0
      vertex 2.31763 7.13292 0
    endloop
  endfacet
  facet normal 0.207911 -0.978148 0
    outer loop
      vertex 0.783963 -7.45891 0
      vertex 2.31763 -7.13292 2
      vertex 0.783963 -7.45891 2
    endloop
  endfacet
  facet normal 0.207911 -0.978148 0
    outer loop
      vertex 2.31763 -7.13292 2
      vertex 0.783963 -7.45891 0
      vertex 2.31763 -7.13292 0
    endloop
  endfacet
  facet normal -0.866027 -0.499997 0
    outer loop
      vertex -6.06763 -4.40839 0
      vertex -6.85159 -3.05052 2
      vertex -6.85159 -3.05052 0
    endloop
  endfacet
  facet normal -0.866027 -0.499997 0
    outer loop
      vertex -6.85159 -3.05052 2
      vertex -6.06763 -4.40839 0
      vertex -6.06763 -4.40839 2
    endloop
  endfacet
  facet normal -0.994522 -0.104526 0
    outer loop
      vertex -7.33611 -1.55934 0
      vertex -7.5 0 2
      vertex -7.5 0 0
    endloop
  endfacet
  facet normal -0.994522 -0.104526 0
    outer loop
      vertex -7.5 0 2
      vertex -7.33611 -1.55934 0
      vertex -7.33611 -1.55934 2
    endloop
  endfacet
  facet normal -0.743145 -0.66913 0
    outer loop
      vertex -5.01848 -5.57359 0
      vertex -6.06763 -4.40839 2
      vertex -6.06763 -4.40839 0
    endloop
  endfacet
  facet normal -0.743145 -0.66913 0
    outer loop
      vertex -6.06763 -4.40839 2
      vertex -5.01848 -5.57359 0
      vertex -5.01848 -5.57359 2
    endloop
  endfacet
  facet normal 0.207911 0.978148 -0
    outer loop
      vertex 2.31763 7.13292 0
      vertex 0.783963 7.45891 2
      vertex 2.31763 7.13292 2
    endloop
  endfacet
  facet normal 0.207911 0.978148 0
    outer loop
      vertex 0.783963 7.45891 2
      vertex 2.31763 7.13292 0
      vertex 0.783963 7.45891 0
    endloop
  endfacet
  facet normal -0.587783 -0.809018 0
    outer loop
      vertex -5.01848 -5.57359 0
      vertex -3.75 -6.49519 2
      vertex -5.01848 -5.57359 2
    endloop
  endfacet
  facet normal -0.587783 -0.809018 -0
    outer loop
      vertex -3.75 -6.49519 2
      vertex -5.01848 -5.57359 0
      vertex -3.75 -6.49519 0
    endloop
  endfacet
  facet normal -0.866027 0.499997 0
    outer loop
      vertex -6.85159 3.05052 0
      vertex -6.06763 4.40839 2
      vertex -6.06763 4.40839 0
    endloop
  endfacet
  facet normal -0.866027 0.499997 0
    outer loop
      vertex -6.06763 4.40839 2
      vertex -6.85159 3.05052 0
      vertex -6.85159 3.05052 2
    endloop
  endfacet
  facet normal 0.406741 0.913543 -0
    outer loop
      vertex -2.00861 -6.18187 0
      vertex -3.25 -5.62916 2
      vertex -2.00861 -6.18187 2
    endloop
  endfacet
  facet normal 0.406741 0.913543 0
    outer loop
      vertex -3.25 -5.62916 2
      vertex -2.00861 -6.18187 0
      vertex -3.25 -5.62916 0
    endloop
  endfacet
  facet normal 0.951055 0.309022 0
    outer loop
      vertex -5.93804 -2.64379 2
      vertex -6.35796 -1.35143 0
      vertex -6.35796 -1.35143 2
    endloop
  endfacet
  facet normal 0.951055 0.309022 0
    outer loop
      vertex -6.35796 -1.35143 0
      vertex -5.93804 -2.64379 2
      vertex -5.93804 -2.64379 0
    endloop
  endfacet
  facet normal -0.951055 -0.309022 0
    outer loop
      vertex 6.35796 1.35143 0
      vertex 5.93804 2.64379 2
      vertex 5.93804 2.64379 0
    endloop
  endfacet
  facet normal -0.951055 -0.309022 0
    outer loop
      vertex 5.93804 2.64379 2
      vertex 6.35796 1.35143 0
      vertex 6.35796 1.35143 2
    endloop
  endfacet
  facet normal -0.994522 -0.104528 0
    outer loop
      vertex 6.5 0 0
      vertex 6.35796 1.35143 2
      vertex 6.35796 1.35143 0
    endloop
  endfacet
  facet normal -0.994522 -0.104528 0
    outer loop
      vertex 6.35796 1.35143 2
      vertex 6.5 0 0
      vertex 6.5 0 2
    endloop
  endfacet
  facet normal -0.866026 -0.499999 0
    outer loop
      vertex 5.93804 2.64379 0
      vertex 5.25861 3.8206 2
      vertex 5.25861 3.8206 0
    endloop
  endfacet
  facet normal -0.866026 -0.499999 0
    outer loop
      vertex 5.25861 3.8206 2
      vertex 5.93804 2.64379 0
      vertex 5.93804 2.64379 2
    endloop
  endfacet
  facet normal -0.587783 0.809019 0
    outer loop
      vertex 4.34935 -4.83044 0
      vertex 3.25 -5.62916 2
      vertex 4.34935 -4.83044 2
    endloop
  endfacet
  facet normal -0.587783 0.809019 0
    outer loop
      vertex 3.25 -5.62916 2
      vertex 4.34935 -4.83044 0
      vertex 3.25 -5.62916 0
    endloop
  endfacet
  facet normal -0.406741 -0.913543 0
    outer loop
      vertex 2.00861 6.18187 0
      vertex 3.25 5.62916 2
      vertex 2.00861 6.18187 2
    endloop
  endfacet
  facet normal -0.406741 -0.913543 -0
    outer loop
      vertex 3.25 5.62916 2
      vertex 2.00861 6.18187 0
      vertex 3.25 5.62916 0
    endloop
  endfacet
  facet normal -0.994522 0.104528 0
    outer loop
      vertex 6.35796 -1.35143 0
      vertex 6.5 0 2
      vertex 6.5 0 0
    endloop
  endfacet
  facet normal -0.994522 0.104528 0
    outer loop
      vertex 6.5 0 2
      vertex 6.35796 -1.35143 0
      vertex 6.35796 -1.35143 2
    endloop
  endfacet
  facet normal -0.743146 -0.669129 0
    outer loop
      vertex 5.25861 3.8206 0
      vertex 4.34935 4.83044 2
      vertex 4.34935 4.83044 0
    endloop
  endfacet
  facet normal -0.743146 -0.669129 0
    outer loop
      vertex 4.34935 4.83044 2
      vertex 5.25861 3.8206 0
      vertex 5.25861 3.8206 2
    endloop
  endfacet
  facet normal 0.866026 -0.499999 0
    outer loop
      vertex -5.93804 2.64379 2
      vertex -5.25861 3.8206 0
      vertex -5.25861 3.8206 2
    endloop
  endfacet
  facet normal 0.866026 -0.499999 0
    outer loop
      vertex -5.25861 3.8206 0
      vertex -5.93804 2.64379 2
      vertex -5.93804 2.64379 0
    endloop
  endfacet
  facet normal -0.743146 0.669129 0
    outer loop
      vertex 4.34935 -4.83044 0
      vertex 5.25861 -3.8206 2
      vertex 5.25861 -3.8206 0
    endloop
  endfacet
  facet normal -0.743146 0.669129 0
    outer loop
      vertex 5.25861 -3.8206 2
      vertex 4.34935 -4.83044 0
      vertex 4.34935 -4.83044 2
    endloop
  endfacet
  facet normal 0.743146 -0.669129 0
    outer loop
      vertex -5.25861 3.8206 2
      vertex -4.34935 4.83044 0
      vertex -4.34935 4.83044 2
    endloop
  endfacet
  facet normal 0.743146 -0.669129 0
    outer loop
      vertex -4.34935 4.83044 0
      vertex -5.25861 3.8206 2
      vertex -5.25861 3.8206 0
    endloop
  endfacet
  facet normal -0.866026 0.499999 0
    outer loop
      vertex 5.25861 -3.8206 0
      vertex 5.93804 -2.64379 2
      vertex 5.93804 -2.64379 0
    endloop
  endfacet
  facet normal -0.866026 0.499999 0
    outer loop
      vertex 5.93804 -2.64379 2
      vertex 5.25861 -3.8206 0
      vertex 5.25861 -3.8206 2
    endloop
  endfacet
  facet normal 0.587783 -0.809019 0
    outer loop
      vertex -4.34935 4.83044 0
      vertex -3.25 5.62916 2
      vertex -4.34935 4.83044 2
    endloop
  endfacet
  facet normal 0.587783 -0.809019 0
    outer loop
      vertex -3.25 5.62916 2
      vertex -4.34935 4.83044 0
      vertex -3.25 5.62916 0
    endloop
  endfacet
  facet normal -0.951055 0.309022 0
    outer loop
      vertex 5.93804 -2.64379 0
      vertex 6.35796 -1.35143 2
      vertex 6.35796 -1.35143 0
    endloop
  endfacet
  facet normal -0.951055 0.309022 0
    outer loop
      vertex 6.35796 -1.35143 2
      vertex 5.93804 -2.64379 0
      vertex 5.93804 -2.64379 2
    endloop
  endfacet
  facet normal 0 -1 0
    outer loop
      vertex -0.679435 6.46439 0
      vertex 0.679435 6.46439 2
      vertex -0.679435 6.46439 2
    endloop
  endfacet
  facet normal 0 -1 -0
    outer loop
      vertex 0.679435 6.46439 2
      vertex -0.679435 6.46439 0
      vertex 0.679435 6.46439 0
    endloop
  endfacet
  facet normal 0.587783 0.809019 -0
    outer loop
      vertex -3.25 -5.62916 0
      vertex -4.34935 -4.83044 2
      vertex -3.25 -5.62916 2
    endloop
  endfacet
  facet normal 0.587783 0.809019 0
    outer loop
      vertex -4.34935 -4.83044 2
      vertex -3.25 -5.62916 0
      vertex -4.34935 -4.83044 0
    endloop
  endfacet
  facet normal 0.866026 0.499999 0
    outer loop
      vertex -5.25861 -3.8206 2
      vertex -5.93804 -2.64379 0
      vertex -5.93804 -2.64379 2
    endloop
  endfacet
  facet normal 0.866026 0.499999 0
    outer loop
      vertex -5.93804 -2.64379 0
      vertex -5.25861 -3.8206 2
      vertex -5.25861 -3.8206 0
    endloop
  endfacet
  facet normal 0.406741 -0.913543 0
    outer loop
      vertex -3.25 5.62916 0
      vertex -2.00861 6.18187 2
      vertex -3.25 5.62916 2
    endloop
  endfacet
  facet normal 0.406741 -0.913543 0
    outer loop
      vertex -2.00861 6.18187 2
      vertex -3.25 5.62916 0
      vertex -2.00861 6.18187 0
    endloop
  endfacet
  facet normal 0.994522 0.104528 0
    outer loop
      vertex -6.35796 -1.35143 2
      vertex -6.5 0 0
      vertex -6.5 0 2
    endloop
  endfacet
  facet normal 0.994522 0.104528 0
    outer loop
      vertex -6.5 0 0
      vertex -6.35796 -1.35143 2
      vertex -6.35796 -1.35143 0
    endloop
  endfacet
  facet normal 0.743146 0.669129 0
    outer loop
      vertex -4.34935 -4.83044 2
      vertex -5.25861 -3.8206 0
      vertex -5.25861 -3.8206 2
    endloop
  endfacet
  facet normal 0.743146 0.669129 0
    outer loop
      vertex -5.25861 -3.8206 0
      vertex -4.34935 -4.83044 2
      vertex -4.34935 -4.83044 0
    endloop
  endfacet
  facet normal -0.207908 0.978148 0
    outer loop
      vertex 2.00861 -6.18187 0
      vertex 0.679435 -6.46439 2
      vertex 2.00861 -6.18187 2
    endloop
  endfacet
  facet normal -0.207908 0.978148 0
    outer loop
      vertex 0.679435 -6.46439 2
      vertex 2.00861 -6.18187 0
      vertex 0.679435 -6.46439 0
    endloop
  endfacet
  facet normal 0.994522 -0.104528 0
    outer loop
      vertex -6.5 0 2
      vertex -6.35796 1.35143 0
      vertex -6.35796 1.35143 2
    endloop
  endfacet
  facet normal 0.994522 -0.104528 0
    outer loop
      vertex -6.35796 1.35143 0
      vertex -6.5 0 2
      vertex -6.5 0 0
    endloop
  endfacet
  facet normal -0.207908 -0.978148 0
    outer loop
      vertex 0.679435 6.46439 0
      vertex 2.00861 6.18187 2
      vertex 0.679435 6.46439 2
    endloop
  endfacet
  facet normal -0.207908 -0.978148 -0
    outer loop
      vertex 2.00861 6.18187 2
      vertex 0.679435 6.46439 0
      vertex 2.00861 6.18187 0
    endloop
  endfacet
  facet normal -0.587783 -0.809019 0
    outer loop
      vertex 3.25 5.62916 0
      vertex 4.34935 4.83044 2
      vertex 3.25 5.62916 2
    endloop
  endfacet
  facet normal -0.587783 -0.809019 -0
    outer loop
      vertex 4.34935 4.83044 2
      vertex 3.25 5.62916 0
      vertex 4.34935 4.83044 0
    endloop
  endfacet
  facet normal 0.207908 -0.978148 0
    outer loop
      vertex -2.00861 6.18187 0
      vertex -0.679435 6.46439 2
      vertex -2.00861 6.18187 2
    endloop
  endfacet
  facet normal 0.207908 -0.978148 0
    outer loop
      vertex -0.679435 6.46439 2
      vertex -2.00861 6.18187 0
      vertex -0.679435 6.46439 0
    endloop
  endfacet
  facet normal -0.406741 0.913543 0
    outer loop
      vertex 3.25 -5.62916 0
      vertex 2.00861 -6.18187 2
      vertex 3.25 -5.62916 2
    endloop
  endfacet
  facet normal -0.406741 0.913543 0
    outer loop
      vertex 2.00861 -6.18187 2
      vertex 3.25 -5.62916 0
      vertex 2.00861 -6.18187 0
    endloop
  endfacet
  facet normal 0 1 -0
    outer loop
      vertex 0.679435 -6.46439 0
      vertex -0.679435 -6.46439 2
      vertex 0.679435 -6.46439 2
    endloop
  endfacet
  facet normal 0 1 0
    outer loop
      vertex -0.679435 -6.46439 2
      vertex 0.679435 -6.46439 0
      vertex -0.679435 -6.46439 0
    endloop
  endfacet
  facet normal 0.207908 0.978148 -0
    outer loop
      vertex -0.679435 -6.46439 0
      vertex -2.00861 -6.18187 2
      vertex -0.679435 -6.46439 2
    endloop
  endfacet
  facet normal 0.207908 0.978148 0
    outer loop
      vertex -2.00861 -6.18187 2
      vertex -0.679435 -6.46439 0
      vertex -2.00861 -6.18187 0
    endloop
  endfacet
  facet normal 0.951055 -0.309022 0
    outer loop
      vertex -6.35796 1.35143 2
      vertex -5.93804 2.64379 0
      vertex -5.93804 2.64379 2
    endloop
  endfacet
  facet normal 0.951055 -0.309022 0
    outer loop
      vertex -5.93804 2.64379 0
      vertex -6.35796 1.35143 2
      vertex -6.35796 1.35143 0
    endloop
  endfacet
  facet normal 1 -0 0
    outer loop
      vertex 46.5 -1 2
      vertex 46.5 1 0
      vertex 46.5 1 2
    endloop
  endfacet
  facet normal 1 0 0
    outer loop
      vertex 46.5 1 0
      vertex 46.5 -1 2
      vertex 46.5 -1 0
    endloop
  endfacet
  facet normal 0 1 -0
    outer loop
      vertex 46.5 1 0
      vertex 7.3949 1 2
      vertex 46.5 1 2
    endloop
  endfacet
  facet normal 0 1 0
    outer loop
      vertex 7.3949 1 2
      vertex 46.5 1 0
      vertex 7.3949 1 0
    endloop
  endfacet
  facet normal 0 -1 0
    outer loop
      vertex 7.3949 -1 0
      vertex 46.5 -1 2
      vertex 7.3949 -1 2
    endloop
  endfacet
  facet normal 0 -1 -0
    outer loop
      vertex 46.5 -1 2
      vertex 7.3949 -1 0
      vertex 46.5 -1 0
    endloop
  endfacet
endsolid OpenSCAD_Model
